<svg xmlns="http://www.w3.org/2000/svg" width="375.178" height="336.143" viewBox="0 0 375.178 336.143">
  <defs>
    <style>
      .cls-1 {
        fill: #eef7fe;
      }

      .cls-2 {
        fill: #ddeefb;
        fill-rule: evenodd;
      }
    </style>
  </defs>
  <g id="Group_4049" data-name="Group 4049" transform="translate(9.293 47.22)">
    <path id="Path_5180" data-name="Path 5180" class="cls-1" d="M318.7,261.642a136.033,136.033,0,0,0,47.056,26.628V-47.873l-375.019.641c0,9.438-.071,202.143.01,241.027,28.259,10.063,57,13.523,83.148,6.2C240.693,153.245,204.994,164.332,318.7,261.642Z" transform="translate(0 0.653)"/>
    <path id="Path_5181" data-name="Path 5181" class="cls-2" d="M379.379,110.382a20.512,20.512,0,0,0-5.956.882,32.895,32.895,0,0,0-63.93-.268,20.508,20.508,0,1,0-4.987,40.4h31.9a33.289,33.289,0,0,0,10.031,0h32.938a20.507,20.507,0,0,0,0-41.014Z" transform="translate(-34 12)"/>
    <path id="Path_5182" data-name="Path 5182" class="cls-2" d="M236.453,53.784a6.544,6.544,0,0,0-1.9.282,10.5,10.5,0,0,0-20.411-.086,6.547,6.547,0,1,0-1.593,12.9h10.186a10.616,10.616,0,0,0,3.2,0h10.517a6.547,6.547,0,0,0,0-13.094Z"/>
    <path id="Path_5183" data-name="Path 5183" class="cls-2" d="M25.453,138.784a6.526,6.526,0,0,0-1.9.282A10.5,10.5,0,0,0,3.14,138.98a6.548,6.548,0,1,0-1.592,12.9H11.733a10.657,10.657,0,0,0,3.2,0H25.453a6.548,6.548,0,0,0,0-13.1Z"/>
    <path id="Path_5184" data-name="Path 5184" class="cls-2" d="M69.453,21.784a6.542,6.542,0,0,0-1.9.282A10.5,10.5,0,0,0,47.14,21.98a6.547,6.547,0,1,0-1.592,12.9H55.734a10.614,10.614,0,0,0,3.2,0H69.453a6.547,6.547,0,1,0,0-13.094Z"/>
  </g>
</svg>
