<svg xmlns="http://www.w3.org/2000/svg" width="14.113" height="26.178" viewBox="0 0 14.113 26.178">
  <g id="Group_4072" data-name="Group 4072" transform="translate(-2249.989 -1506.034)">
    <path id="Path_5243" data-name="Path 5243" d="M2263.414,1512.1l-3.215,1.978v17.452l3.215-1.978V1512.1l-9.18-5.3a1.693,1.693,0,0,0-1.928.164l-1.407,1.168a1.136,1.136,0,0,0-.41.873v15.808a1.916,1.916,0,0,0,.959,1.661l8.75,5.052" transform="translate(0 0)" fill="none" stroke="#0d1724" stroke-linecap="round" stroke-linejoin="round" stroke-width="1"/>
    <path id="Path_5244" data-name="Path 5244" d="M2257.285,1517.652l3.331,2.195v5.505l2.323,1.446V1521l1.452-1.187" transform="translate(-5.071 -8.265)" fill="none" stroke="#0d1724" stroke-linecap="round" stroke-linejoin="round" stroke-width="1"/>
    <path id="Path_5245" data-name="Path 5245" d="M2256.687,1562.195l6.466,3.733v-2.346l-.458-.29a16.7,16.7,0,0,1-6.206-7.082h0v5.642A.4.4,0,0,0,2256.687,1562.195Z" transform="translate(-4.477 -37.036)" fill="#f59525"/>
  </g>
</svg>
