<svg xmlns="http://www.w3.org/2000/svg" width="25.136" height="25.654" viewBox="0 0 25.136 25.654">
  <defs>
    <style>
      .cls-1 {
        fill: #fa7032;
        fill-rule: evenodd;
      }
    </style>
  </defs>
  <path id="Path_6" data-name="Path 6" class="cls-1" d="M24,10.178c-2.788.046-5.583.046-8.378.046-.766,0-1.616-.046-2.389,0-.168,0-.421.191-.421.291v4.917h6.8a3.284,3.284,0,0,1-.23.819c-1.026,3.109-4.243,4.641-7.7,4.074A7.5,7.5,0,0,1,5.492,11.7q.027-.161.06-.321a8.042,8.042,0,0,1,.505-1.746A7.545,7.545,0,0,1,14.472,5.41a6.888,6.888,0,0,1,3.14,1.662l3.76-3.76a1.682,1.682,0,0,1-.3-.245A12.254,12.254,0,0,0,10.72.21,12.7,12.7,0,0,0,.2,10.661a12.675,12.675,0,0,0,.628,6.786,12.929,12.929,0,0,0,13.5,8.126,11.429,11.429,0,0,0,7.416-3.463C24.7,18.962,25.485,15.217,25,11c-.084-.689-.36-.819-1.011-.819Z" transform="translate(0.001 -0.002)"/>
</svg>
