<svg xmlns="http://www.w3.org/2000/svg" width="12.834" height="12.834" viewBox="0 0 12.834 12.834">
  <defs>
    <style>
      .cls-1 {
        fill: #f26f21;
      }
    </style>
  </defs>
  <path id="Path_2748" data-name="Path 2748" class="cls-1" d="M111.108,113.9a.377.377,0,0,0,.619,0l2.48-3.561a3.4,3.4,0,1,0-5.579,0Zm.31-7.01a1.51,1.51,0,1,1-1.51,1.51,1.512,1.512,0,0,1,1.51-1.51Zm0,2.265a.755.755,0,1,0-.755-.755.756.756,0,0,0,.755.755Zm6.387,8.157-.873-2.066a.38.38,0,0,0-.174-.188l-2.9-1.509a.377.377,0,0,0-.383.021l-2.055,1.37-2.055-1.37a.377.377,0,0,0-.389-.018c-.018.01-1.81.979-2.888,1.5a.38.38,0,0,0-.183.193l-.872,2.066a.378.378,0,0,0,.5.491l3.165-1.431,2.535,1.417a.377.377,0,0,0,.369,0l2.535-1.417L117.3,117.8a.378.378,0,0,0,.5-.491Z" transform="translate(-105 -105.002)"/>
</svg>
