<?xml version="1.0" encoding="utf-8"?>
<!-- Generator: Adobe Illustrator 24.2.1, SVG Export Plug-In . SVG Version: 6.00 Build 0)  -->
<svg version="1.1" id="Layer_1" xmlns="http://www.w3.org/2000/svg" xmlns:xlink="http://www.w3.org/1999/xlink" x="0px" y="0px"
	 viewBox="0 0 21.5 20" style="enable-background:new 0 0 21.5 20;" xml:space="preserve">
<style type="text/css">
	.st0{fill:none;stroke:#000000;stroke-miterlimit:10;}
	.st1{fill:none;stroke:#F59523;stroke-miterlimit:10;}
</style>
<g id="Group_4075" transform="translate(-512.636 -107.569)">
	<path id="Path_184" class="st0" d="M523.5,126.4h-7.5c-1.1,0-2-0.8-2.1-2c0,0,0-0.1,0-0.1c0-3.6,0-7.2,0-10.8c0-1.1,0.9-2,2-2
		c0,0,0,0,0.1,0c1.3,0,2.5,0,3.8,0c0.2,0,0.3-0.1,0.3-0.3c-0.1-0.5,0-0.9,0.2-1.4c0.3-0.7,1-1.1,1.8-1.1c0.9,0,1.9,0,2.8,0
		c1.1,0,2,0.9,2,2c0,0.2,0,0.3,0,0.5c0,0.2,0.1,0.2,0.2,0.2c1.3,0,2.6,0,3.9,0c1.1,0,2,0.9,2,2c0,3.6,0,7.3,0,10.9c0,1.1-0.9,2-2,2
		C528.5,126.4,526,126.4,523.5,126.4z M514.4,115.2C514.4,115.2,514.4,115.2,514.4,115.2c1.2,0.3,2.3,0.7,3.5,1
		c0.2,0.1,0.4,0.1,0.6,0.1h10.3c0.1,0,0.3,0,0.4,0c1.2-0.3,2.4-0.7,3.7-1"/>
</g>
<path class="st0" d="M7.1,3.9l7.4,0L7.1,3.9z"/>
<line class="st1" x1="7.8" y1="11.4" x2="13.5" y2="11.4"/>
</svg>
