<svg xmlns="http://www.w3.org/2000/svg" width="18.392" height="18.392" viewBox="0 0 18.392 18.392">
  <defs>
    <style>
      .cls-1 {
        fill: none;
      }

      .cls-2, .cls-4 {
        fill: #fa7032;
      }

      .cls-3, .cls-4 {
        stroke: none;
      }
    </style>
  </defs>
  <g id="Group_4122" data-name="Group 4122" transform="translate(-293.452 -581.511)">
    <g id="Path_5177" data-name="Path 5177" class="cls-1" transform="translate(293.452 581.511)">
      <path class="cls-3" d="M9.2,0A9.2,9.2,0,1,1,0,9.2,9.2,9.2,0,0,1,9.2,0Z"/>
      <path class="cls-4" d="M 9.196219444274902 0.9999942779541016 C 4.676809310913086 0.9999942779541016 1 4.676784515380859 1 9.196164131164551 C 1 13.71554374694824 4.676809310913086 17.392333984375 9.196219444274902 17.392333984375 C 13.71562957763672 17.392333984375 17.3924388885498 13.71554374694824 17.3924388885498 9.196164131164551 C 17.3924388885498 4.676784515380859 13.71562957763672 0.9999942779541016 9.196219444274902 0.9999942779541016 M 9.196219444274902 -5.7220458984375e-06 C 14.27514934539795 -5.7220458984375e-06 18.3924388885498 4.117263793945312 18.3924388885498 9.196164131164551 C 18.3924388885498 14.27506446838379 14.27514934539795 18.392333984375 9.196219444274902 18.392333984375 C 4.117289543151855 18.392333984375 0 14.27506446838379 0 9.196164131164551 C 0 4.117263793945312 4.117289543151855 -5.7220458984375e-06 9.196219444274902 -5.7220458984375e-06 Z"/>
    </g>
    <path id="Path_5178" data-name="Path 5178" class="cls-2" d="M.359,7.048C-.09,6.739-.12,6.461.282,6.074L2.6,3.755c.077-.077.139-.139.216-.232-.077-.077-.139-.155-.216-.232L.3.987A1.655,1.655,0,0,1,.081.74.452.452,0,0,1,.158.153.432.432,0,0,1,.73.075,1.655,1.655,0,0,1,.977.292L3.729,3.044c.371.371.371.6,0,.974L.977,6.77a3.262,3.262,0,0,1-.356.294A1.415,1.415,0,0,0,.359,7.048Z" transform="translate(300.678 587.065)"/>
  </g>
</svg>
