<?xml version="1.0" encoding="utf-8"?>
<!-- Generator: Adobe Illustrator 24.2.1, SVG Export Plug-In . SVG Version: 6.00 Build 0)  -->
<svg version="1.1" id="Layer_1" xmlns="http://www.w3.org/2000/svg" xmlns:xlink="http://www.w3.org/1999/xlink" x="0px" y="0px"
	 viewBox="0 0 19.6 19.7" style="enable-background:new 0 0 19.6 19.7;" xml:space="preserve">
<style type="text/css">
	.st0{fill:none;stroke:#000000;stroke-width:0.5;stroke-miterlimit:10;}
</style>
<g id="qr-code" transform="translate(-0.679 0)">
	<path id="Path_5246" class="st0" d="M18.9,0.9h-4.2c-0.3,0-0.5,0.3-0.5,0.5c0,0.3,0.2,0.5,0.5,0.5h3.7v4c0,0.3,0.2,0.5,0.5,0.5
		c0.3,0,0.5-0.2,0.5-0.5c0,0,0,0,0,0V1.4C19.4,1.1,19.2,0.9,18.9,0.9z"/>
	<path id="Path_5247" class="st0" d="M2,6.2c0.3,0,0.5-0.2,0.5-0.5V1.9h4c0.3,0,0.5-0.2,0.5-0.5S6.9,0.9,6.6,0.9c0,0,0,0,0,0H2
		c-0.3,0-0.5,0.2-0.5,0.5l0,0v4.2C1.5,6,1.7,6.2,2,6.2z"/>
	<path id="Path_5248" class="st0" d="M6.2,17.9H2.5v-4c0-0.3-0.3-0.5-0.5-0.5c-0.3,0-0.5,0.2-0.5,0.5v4.6c0,0.3,0.2,0.5,0.5,0.5h4.2
		c0.3,0,0.5-0.2,0.5-0.5C6.8,18.1,6.6,17.9,6.2,17.9C6.3,17.9,6.2,17.9,6.2,17.9L6.2,17.9z"/>
	<path id="Path_5249" class="st0" d="M18.9,13.6c-0.3,0-0.5,0.2-0.5,0.5v3.7h-4c-0.3,0-0.5,0.3-0.5,0.5c0,0.3,0.2,0.5,0.5,0.5h4.6
		c0.3,0,0.5-0.2,0.5-0.5v-4.2C19.4,13.9,19.2,13.6,18.9,13.6z"/>
	<path id="Path_5250" class="st0" d="M8.4,11.4H4.1c-0.3,0-0.5,0.2-0.5,0.5v4.4c0,0.3,0.2,0.5,0.5,0.5h4.3c0.3,0,0.5-0.2,0.5-0.5
		v-4.4C8.9,11.6,8.6,11.4,8.4,11.4C8.4,11.4,8.4,11.4,8.4,11.4z M7.8,15.7H4.6v-3.3h3.2V15.7z"/>
	<path id="Path_5251" class="st0" d="M8.4,9.4H7.2c-0.3,0-0.5,0.2-0.5,0.5c0,0.3,0.2,0.5,0.5,0.5c0,0,0,0,0,0h1.1
		c0.3,0,0.5-0.3,0.5-0.5C8.8,9.6,8.6,9.4,8.4,9.4z"/>
	<path id="Path_5252" class="st0" d="M4.1,10.4h1.1c0.3,0,0.5-0.2,0.5-0.5S5.5,9.4,5.3,9.4c0,0,0,0,0,0H4.1c-0.3,0-0.5,0.2-0.5,0.5
		C3.5,10.2,3.8,10.4,4.1,10.4C4.1,10.4,4.1,10.4,4.1,10.4z"/>
	<path id="Path_5253" class="st0" d="M10.5,8.4c0.3,0,0.5-0.2,0.5-0.5l0,0V3.5C11,3.2,10.7,3,10.4,3c-0.3,0-0.5,0.2-0.5,0.5v4.4
		C9.9,8.2,10.2,8.4,10.5,8.4z"/>
	<path id="Path_5254" class="st0" d="M17.4,16.2v-2.5c0-0.3-0.2-0.5-0.5-0.5c0,0,0,0,0,0h-2.6v-0.9c0-0.3-0.2-0.5-0.5-0.5
		c0,0,0,0,0,0H11v-1.3h4v0.7c0,0.3,0.3,0.5,0.5,0.5c0.3,0,0.5-0.2,0.5-0.5v-0.7h0.8c0.3,0,0.5-0.3,0.5-0.5c0-0.3-0.2-0.5-0.5-0.5
		h-6.4c-0.3,0-0.5,0.2-0.5,0.5c0,0,0,0,0,0v6.3c0,0.3,0.3,0.5,0.5,0.5c0.3,0,0.5-0.2,0.5-0.5v-1.3h0.9c0.3,0,0.5-0.2,0.5-0.5
		c0-0.3-0.2-0.5-0.5-0.5c0,0,0,0,0,0H11v-1h2.2v0.9c0,0.3,0.2,0.5,0.5,0.5c0,0,0,0,0,0h2.6v1.5h-4c-0.3,0-0.5,0.2-0.5,0.5
		s0.2,0.5,0.5,0.5c0,0,0,0,0,0h4.5C17.1,16.8,17.4,16.5,17.4,16.2C17.4,16.2,17.4,16.2,17.4,16.2z"/>
	<path id="Path_5255" class="st0" d="M8.4,3H4.1C3.8,3,3.6,3.2,3.6,3.5l0,0v4.4c0,0.3,0.2,0.5,0.5,0.5h4.3c0.3,0,0.5-0.2,0.5-0.5
		V3.5C8.9,3.2,8.6,3,8.4,3C8.4,3,8.4,3,8.4,3z M7.8,7.3H4.6V4h3.2V7.3L7.8,7.3z"/>
	<path id="Path_5256" class="st0" d="M12.6,8.4h4.3c0.3,0,0.5-0.2,0.5-0.5V3.5c0-0.3-0.2-0.5-0.5-0.5h-4.3C12.3,3,12,3.2,12,3.5v4.4
		C12,8.2,12.3,8.4,12.6,8.4z M13.1,4h3.2v3.3h-3.2V4z"/>
	<path id="Path_5257" class="st0" d="M5.8,14.8h0.8c0.2,0,0.3-0.1,0.3-0.3v-0.8c0-0.2-0.1-0.3-0.3-0.3H5.8c-0.2,0-0.3,0.1-0.3,0.3
		v0.8C5.5,14.6,5.7,14.8,5.8,14.8z"/>
	<path id="Path_5258" class="st0" d="M5.8,6.4h0.8c0.2,0,0.3-0.1,0.3-0.3V5.3C6.9,5.1,6.8,5,6.6,5H5.8C5.7,5,5.5,5.1,5.5,5.3v0.8
		C5.5,6.3,5.7,6.4,5.8,6.4z"/>
	<path id="Path_5259" class="st0" d="M15.1,5h-0.8C14.1,5,14,5.1,14,5.3v0.8c0,0.2,0.1,0.3,0.3,0.3h0.8c0.2,0,0.3-0.1,0.3-0.3V5.3
		C15.4,5.1,15.3,5,15.1,5z"/>
</g>
</svg>
